<svg id="OBJECTS" xmlns="http://www.w3.org/2000/svg" xmlns:xlink="http://www.w3.org/1999/xlink" viewBox="0 0 161.18 184.85"><defs><style>.cls-1{fill:none;}.cls-2{fill:#421631;}.cls-3{fill:#f2cc5a;}.cls-4{clip-path:url(#clip-path);}.cls-5{fill:#d1522e;}.cls-6{fill:#fff;}</style><clipPath id="clip-path" transform="translate(-168.41 -160.92)"><path class="cls-1" d="M270.49,196.13h-43a16.44,16.44,0,0,0-14.22,8.21l-21.48,37.22a16.39,16.39,0,0,0,0,16.42l21.48,37.22a16.44,16.44,0,0,0,14.22,8.21h43a16.44,16.44,0,0,0,14.22-8.21L306.19,258a16.39,16.39,0,0,0,0-16.42l-21.48-37.22A16.44,16.44,0,0,0,270.49,196.13Z"/></clipPath></defs><path class="cls-2" d="M316,195.39,262.6,164.56a27.21,27.21,0,0,0-27.21,0L182,195.38A27.2,27.2,0,0,0,168.41,219v61.64A27.21,27.21,0,0,0,182,304.15L235.4,335a27.16,27.16,0,0,0,27.21,0L316,304.16a27.21,27.21,0,0,0,13.6-23.57V219A27.21,27.21,0,0,0,316,195.39Z" transform="translate(-168.41 -160.92)"/><path class="cls-3" d="M270.49,196.13h-43a16.44,16.44,0,0,0-14.22,8.21l-21.48,37.22a16.39,16.39,0,0,0,0,16.42l21.48,37.22a16.44,16.44,0,0,0,14.22,8.21h43a16.44,16.44,0,0,0,14.22-8.21L306.19,258a16.39,16.39,0,0,0,0-16.42l-21.48-37.22A16.44,16.44,0,0,0,270.49,196.13Z" transform="translate(-168.41 -160.92)"/><g class="cls-4"><path class="cls-2" d="M248.71,343.18h0a5.56,5.56,0,0,1-5.56-5.54L243,227.39l11.09,0,.13,110.26A5.56,5.56,0,0,1,248.71,343.18Z" transform="translate(-168.41 -160.92)"/><path class="cls-5" d="M243.07,251.05l.08,86.59a5.56,5.56,0,0,0,5.56,5.54h0a5.56,5.56,0,0,0,5.54-5.56L254.17,251Z" transform="translate(-168.41 -160.92)"/><path class="cls-2" d="M276.85,229h-3.22s-2.76-9.13-12.27-11.25a4.35,4.35,0,0,0-5.16,3.32l-1.4,6.25-12.16,0-3.24-10.05,0-10,15.63,0a12,12,0,0,1,6,1.62C266.38,212.07,276.83,219.35,276.85,229Z" transform="translate(-168.41 -160.92)"/><path class="cls-2" d="M239.4,217.35c-4.92-3.68-8.66,0-8.66,0l0-10c4.91,3.67,8.66,0,8.66,0Z" transform="translate(-168.41 -160.92)"/><rect class="cls-2" x="222.25" y="205.64" width="8.53" height="13.52" rx="1.82" transform="translate(-168.85 -160.44) rotate(-0.12)"/><rect class="cls-2" x="222.25" y="205.64" width="8.53" height="13.52" rx="1.82" transform="translate(-168.85 -160.44) rotate(-0.12)"/><path class="cls-2" d="M239.25,259.51,234,268.38a5.89,5.89,0,0,1-5.09,2.88l-10.29-.09a5.86,5.86,0,0,1-5-3l-5.07-9a5.83,5.83,0,0,1,.05-5.84l5.22-8.86a5.76,5.76,0,0,1,1-1.26,2,2,0,0,1,3.43,1.46l-.11,13.18a3.24,3.24,0,0,0,3.21,3.27l5.1,0A3.23,3.23,0,0,0,229.7,258l.11-13.19a2,2,0,0,1,3.37-1.48,5.62,5.62,0,0,1,1,1.36l5.07,8.94A5.85,5.85,0,0,1,239.25,259.51Z" transform="translate(-168.41 -160.92)"/><path class="cls-2" d="M223.8,331.26h0a5.67,5.67,0,0,1-5.63-5.66l0-54.43,11.34.09,0,54.33A5.67,5.67,0,0,1,223.8,331.26Z" transform="translate(-168.41 -160.92)"/><path class="cls-5" d="M223.75,323.54h0a3.17,3.17,0,0,1-3.11-3.24l.17-30.7a3.17,3.17,0,0,1,3.24-3.11h0a3.18,3.18,0,0,1,3.11,3.25l-.16,30.7A3.18,3.18,0,0,1,223.75,323.54Z" transform="translate(-168.41 -160.92)"/><polygon class="cls-2" points="91.31 93.91 91.52 100.34 92.76 139.07 103.13 139.07 103.31 100.34 103.34 93.91 91.31 93.91"/><path class="cls-5" d="M260.11,345.77h10.18A5,5,0,0,0,275,343a8.7,8.7,0,0,0-.32-6.54,49.63,49.63,0,0,1-1.47-4.92,38.14,38.14,0,0,1-1-5.91c-.09-.95-.13-1.91-.13-2.87v-1.48l0-5.92,0-4.35,0-5.92,0-5.51v-.82a.79.79,0,0,0-.77-.82H261.06a.79.79,0,0,0-.76.72c0,.25-.06.55-.09.92-.44,4.52-1.45,17.58.17,28.41,1.14,7.58-.14,12.73-1.44,15.76A1.42,1.42,0,0,0,260.11,345.77Z" transform="translate(-168.41 -160.92)"/><path class="cls-6" d="M273.1,245.07v14l15.41,7.58,7.25,3.57a47.15,47.15,0,0,0,0-36.33l-7.26,3.57Z" transform="translate(-168.41 -160.92)"/><path class="cls-5" d="M273.1,245.07v14l15.41,7.58a47.16,47.16,0,0,0,0-29.19Z" transform="translate(-168.41 -160.92)"/><path class="cls-2" d="M259.72,242.71h12a0,0,0,0,1,0,0v10.72a2.14,2.14,0,0,1-2.14,2.14h-7.74a2.14,2.14,0,0,1-2.14-2.14V242.71A0,0,0,0,1,259.72,242.71Z" transform="translate(363.06 337.38) rotate(180)"/><path class="cls-2" d="M266,308.06a3,3,0,0,0,3,2.95h3.22l0-5.91h-3.25A3,3,0,0,0,266,308.06Z" transform="translate(-168.41 -160.92)"/><path class="cls-2" d="M266,318.32a3,3,0,0,0,3,3h3.17l0-5.92h-3.19A3,3,0,0,0,266,318.32Z" transform="translate(-168.41 -160.92)"/><path class="cls-2" d="M266,328.59a3,3,0,0,0,3,3h4.26a38.26,38.26,0,0,1-1-5.92h-3.29A3,3,0,0,0,266,328.59Z" transform="translate(-168.41 -160.92)"/><path class="cls-5" d="M258.46,245.07h13.89a.76.76,0,0,1,.76.76v12.52a.76.76,0,0,1-.76.76H258.46a0,0,0,0,1,0,0v-14a0,0,0,0,1,0,0Z" transform="translate(363.15 343.25) rotate(180)"/></g></svg>