<svg xmlns="http://www.w3.org/2000/svg" xmlns:xlink="http://www.w3.org/1999/xlink" viewBox="0 0 500 500"><defs><style>.cls-1{fill:none;}.cls-2{fill:#fff;}.cls-3,.cls-7{fill:#421631;}.cls-4{fill:#f2cc5a;}.cls-5{clip-path:url(#clip-path);}.cls-6{fill:#d1522e;}.cls-7{font-size:51.64px;font-family:Poppins-ExtraBold, Poppins;font-weight:800;}</style><clipPath id="clip-path" transform="translate(0)"><path class="cls-1" d="M160.49,206.13h-43a16.44,16.44,0,0,0-14.22,8.21L81.81,251.56a16.39,16.39,0,0,0,0,16.42l21.48,37.22a16.44,16.44,0,0,0,14.22,8.21h43a16.44,16.44,0,0,0,14.22-8.21L196.19,268a16.39,16.39,0,0,0,0-16.42l-21.48-37.22A16.44,16.44,0,0,0,160.49,206.13Z"/></clipPath></defs><g id="BACKGROUND"><rect class="cls-2" width="500" height="500"/></g><g id="OBJECTS"><path class="cls-3" d="M206,205.39,152.6,174.56a27.21,27.21,0,0,0-27.21,0L72,205.38A27.2,27.2,0,0,0,58.41,229v61.64A27.21,27.21,0,0,0,72,314.15L125.4,345a27.16,27.16,0,0,0,27.21,0L206,314.16a27.21,27.21,0,0,0,13.6-23.57V229A27.21,27.21,0,0,0,206,205.39Z" transform="translate(0)"/><path class="cls-4" d="M160.49,206.13h-43a16.44,16.44,0,0,0-14.22,8.21L81.81,251.56a16.39,16.39,0,0,0,0,16.42l21.48,37.22a16.44,16.44,0,0,0,14.22,8.21h43a16.44,16.44,0,0,0,14.22-8.21L196.19,268a16.39,16.39,0,0,0,0-16.42l-21.48-37.22A16.44,16.44,0,0,0,160.49,206.13Z" transform="translate(0)"/><g class="cls-5"><path class="cls-3" d="M138.71,353.18h0a5.56,5.56,0,0,1-5.56-5.54L133,237.39l11.09,0,.13,110.26A5.56,5.56,0,0,1,138.71,353.18Z" transform="translate(0)"/><path class="cls-6" d="M133.07,261.05l.08,86.59a5.56,5.56,0,0,0,5.56,5.54h0a5.56,5.56,0,0,0,5.54-5.56L144.17,261Z" transform="translate(0)"/><path class="cls-3" d="M166.85,239h-3.22s-2.76-9.13-12.27-11.25a4.35,4.35,0,0,0-5.16,3.32l-1.4,6.25-12.16,0-3.24-10.05,0-10,15.63,0a12,12,0,0,1,6,1.62C156.38,222.07,166.83,229.35,166.85,239Z" transform="translate(0)"/><path class="cls-3" d="M129.4,227.35c-4.92-3.68-8.66,0-8.66,0l0-10c4.91,3.67,8.66,0,8.66,0Z" transform="translate(0)"/><rect class="cls-3" x="112.25" y="215.64" width="8.53" height="13.52" rx="1.82" transform="translate(-0.47 0.24) rotate(-0.12)"/><rect class="cls-3" x="112.25" y="215.64" width="8.53" height="13.52" rx="1.82" transform="translate(-0.47 0.24) rotate(-0.12)"/><path class="cls-3" d="M129.25,269.51,124,278.38a5.89,5.89,0,0,1-5.09,2.88l-10.29-.09a5.86,5.86,0,0,1-5-3l-5.07-9a5.83,5.83,0,0,1,0-5.84l5.22-8.86a5.76,5.76,0,0,1,1-1.26,2,2,0,0,1,3.43,1.46l-.11,13.18a3.24,3.24,0,0,0,3.21,3.27l5.1,0A3.23,3.23,0,0,0,119.7,268l.11-13.19a2,2,0,0,1,3.37-1.48,5.62,5.62,0,0,1,1,1.36l5.07,8.94A5.85,5.85,0,0,1,129.25,269.51Z" transform="translate(0)"/><path class="cls-3" d="M113.8,341.26h0a5.67,5.67,0,0,1-5.63-5.66l0-54.43,11.34.09,0,54.33A5.67,5.67,0,0,1,113.8,341.26Z" transform="translate(0)"/><path class="cls-6" d="M113.75,333.54h0a3.17,3.17,0,0,1-3.11-3.24l.17-30.7a3.17,3.17,0,0,1,3.24-3.11h0a3.18,3.18,0,0,1,3.11,3.25l-.16,30.7A3.18,3.18,0,0,1,113.75,333.54Z" transform="translate(0)"/><polygon class="cls-3" points="149.72 264.82 149.92 271.26 151.16 309.99 161.54 309.99 161.72 271.26 161.75 264.82 149.72 264.82"/><path class="cls-6" d="M150.11,355.77h10.18A5,5,0,0,0,165,353a8.7,8.7,0,0,0-.32-6.54,49.63,49.63,0,0,1-1.47-4.92,38.14,38.14,0,0,1-1-5.91c-.09-.95-.13-1.91-.13-2.87v-1.48l0-5.92,0-4.35,0-5.92,0-5.51v-.82a.79.79,0,0,0-.77-.82H151.06a.79.79,0,0,0-.76.72c0,.25-.06.55-.09.92-.44,4.52-1.45,17.58.17,28.41,1.14,7.58-.14,12.73-1.44,15.76A1.42,1.42,0,0,0,150.11,355.77Z" transform="translate(0)"/><path class="cls-2" d="M163.1,255.07v14l15.41,7.58,7.25,3.57a47.15,47.15,0,0,0,0-36.33l-7.26,3.57Z" transform="translate(0)"/><path class="cls-6" d="M163.1,255.07v14l15.41,7.58a47.16,47.16,0,0,0,0-29.19Z" transform="translate(0)"/><path class="cls-3" d="M149.72,252.71h12a0,0,0,0,1,0,0v10.72a2.14,2.14,0,0,1-2.14,2.14h-7.74a2.14,2.14,0,0,1-2.14-2.14V252.71a0,0,0,0,1,0,0Z" transform="translate(311.47 518.29) rotate(180)"/><path class="cls-3" d="M156,318.06a3,3,0,0,0,3,2.95h3.22l0-5.91h-3.25A3,3,0,0,0,156,318.06Z" transform="translate(0)"/><path class="cls-3" d="M156,328.32a3,3,0,0,0,3,3h3.17l0-5.92h-3.19A3,3,0,0,0,156,328.32Z" transform="translate(0)"/><path class="cls-3" d="M156,338.59a3,3,0,0,0,3,3h4.26a38.26,38.26,0,0,1-1-5.92h-3.29A3,3,0,0,0,156,338.59Z" transform="translate(0)"/><path class="cls-6" d="M148.46,255.07h13.89a.76.76,0,0,1,.76.76v12.52a.76.76,0,0,1-.76.76H148.46a0,0,0,0,1,0,0v-14a0,0,0,0,1,0,0Z" transform="translate(311.56 524.16) rotate(180)"/></g></g><g id="TEXTS"><text class="cls-7" transform="translate(244.54 278.73)">BUILDIT</text></g></svg>